<mxfile host="app.diagrams.net" agent="Mozilla/5.0 (Windows NT 10.0; Win64; x64) AppleWebKit/537.36 (KHTML, like Gecko) Chrome/131.0.0.0 Safari/537.36 Edg/131.0.0.0" version="26.0.5">
  <diagram name="Page-1" id="V-oqWWwOyqvHbmN_96bf">
    <mxGraphModel dx="2642" dy="1919" grid="0" gridSize="10" guides="1" tooltips="1" connect="1" arrows="1" fold="1" page="0" pageScale="1" pageWidth="850" pageHeight="1100" math="0" shadow="0">
      <root>
        <mxCell id="0" />
        <mxCell id="1" parent="0" />
        <mxCell id="HsduzMEsnFrv9ZGrpt-6-1" value="" style="rounded=0;whiteSpace=wrap;html=1;" vertex="1" parent="1">
          <mxGeometry x="-1226" y="-841" width="395" height="60" as="geometry" />
        </mxCell>
        <mxCell id="HsduzMEsnFrv9ZGrpt-6-2" value="" style="ellipse;whiteSpace=wrap;html=1;aspect=fixed;" vertex="1" parent="1">
          <mxGeometry x="-1226" y="-695" width="80" height="80" as="geometry" />
        </mxCell>
        <mxCell id="HsduzMEsnFrv9ZGrpt-6-3" value="" style="ellipse;whiteSpace=wrap;html=1;aspect=fixed;" vertex="1" parent="1">
          <mxGeometry x="-1116" y="-695" width="80" height="80" as="geometry" />
        </mxCell>
        <mxCell id="HsduzMEsnFrv9ZGrpt-6-5" value="" style="endArrow=none;dashed=1;html=1;dashPattern=1 3;strokeWidth=2;rounded=0;fontSize=12;startSize=8;endSize=8;curved=1;" edge="1" parent="1">
          <mxGeometry width="50" height="50" relative="1" as="geometry">
            <mxPoint x="-1014" y="-655.5" as="sourcePoint" />
            <mxPoint x="-914" y="-655" as="targetPoint" />
          </mxGeometry>
        </mxCell>
        <mxCell id="HsduzMEsnFrv9ZGrpt-6-6" value="" style="ellipse;whiteSpace=wrap;html=1;aspect=fixed;" vertex="1" parent="1">
          <mxGeometry x="-883" y="-695" width="80" height="80" as="geometry" />
        </mxCell>
        <mxCell id="HsduzMEsnFrv9ZGrpt-6-7" value="" style="rounded=0;whiteSpace=wrap;html=1;" vertex="1" parent="1">
          <mxGeometry x="-1226" y="-841" width="101" height="60" as="geometry" />
        </mxCell>
        <mxCell id="HsduzMEsnFrv9ZGrpt-6-14" value="" style="edgeStyle=none;curved=1;rounded=0;orthogonalLoop=1;jettySize=auto;html=1;fontSize=12;startSize=8;endSize=8;" edge="1" parent="1" source="HsduzMEsnFrv9ZGrpt-6-8" target="HsduzMEsnFrv9ZGrpt-6-3">
          <mxGeometry relative="1" as="geometry" />
        </mxCell>
        <mxCell id="HsduzMEsnFrv9ZGrpt-6-8" value="" style="rounded=0;whiteSpace=wrap;html=1;" vertex="1" parent="1">
          <mxGeometry x="-1125" y="-841" width="101" height="60" as="geometry" />
        </mxCell>
        <mxCell id="HsduzMEsnFrv9ZGrpt-6-9" value="" style="rounded=0;whiteSpace=wrap;html=1;" vertex="1" parent="1">
          <mxGeometry x="-932" y="-841" width="101" height="60" as="geometry" />
        </mxCell>
        <mxCell id="HsduzMEsnFrv9ZGrpt-6-10" value="" style="endArrow=none;dashed=1;html=1;dashPattern=1 3;strokeWidth=2;rounded=0;fontSize=12;startSize=8;endSize=8;curved=1;" edge="1" parent="1">
          <mxGeometry width="50" height="50" relative="1" as="geometry">
            <mxPoint x="-1009" y="-811.5" as="sourcePoint" />
            <mxPoint x="-942" y="-811" as="targetPoint" />
          </mxGeometry>
        </mxCell>
        <mxCell id="HsduzMEsnFrv9ZGrpt-6-11" value="" style="endArrow=classic;html=1;rounded=0;fontSize=12;startSize=8;endSize=8;curved=1;entryX=0.5;entryY=0;entryDx=0;entryDy=0;" edge="1" parent="1" source="HsduzMEsnFrv9ZGrpt-6-7" target="HsduzMEsnFrv9ZGrpt-6-2">
          <mxGeometry width="50" height="50" relative="1" as="geometry">
            <mxPoint x="-1183" y="-802" as="sourcePoint" />
            <mxPoint x="-1133" y="-852" as="targetPoint" />
          </mxGeometry>
        </mxCell>
        <mxCell id="HsduzMEsnFrv9ZGrpt-6-13" value="" style="endArrow=classic;html=1;rounded=0;fontSize=12;startSize=8;endSize=8;curved=1;entryX=0.5;entryY=0;entryDx=0;entryDy=0;exitX=0.5;exitY=1;exitDx=0;exitDy=0;" edge="1" parent="1" source="HsduzMEsnFrv9ZGrpt-6-9" target="HsduzMEsnFrv9ZGrpt-6-6">
          <mxGeometry width="50" height="50" relative="1" as="geometry">
            <mxPoint x="-880" y="-778" as="sourcePoint" />
            <mxPoint x="-883" y="-695" as="targetPoint" />
          </mxGeometry>
        </mxCell>
        <mxCell id="HsduzMEsnFrv9ZGrpt-6-19" value="" style="curved=1;endArrow=classic;html=1;rounded=0;fontSize=12;startSize=8;endSize=8;" edge="1" parent="1">
          <mxGeometry width="50" height="50" relative="1" as="geometry">
            <mxPoint x="-1176.5" y="-631.5" as="sourcePoint" />
            <mxPoint x="-1168.5" y="-674.5" as="targetPoint" />
            <Array as="points">
              <mxPoint x="-1198.5" y="-631.5" />
              <mxPoint x="-1203.5" y="-678.5" />
            </Array>
          </mxGeometry>
        </mxCell>
        <mxCell id="HsduzMEsnFrv9ZGrpt-6-21" value="" style="curved=1;endArrow=classic;html=1;rounded=0;fontSize=12;startSize=8;endSize=8;" edge="1" parent="1">
          <mxGeometry width="50" height="50" relative="1" as="geometry">
            <mxPoint x="-833.5" y="-631.5" as="sourcePoint" />
            <mxPoint x="-825.5" y="-674.5" as="targetPoint" />
            <Array as="points">
              <mxPoint x="-855.5" y="-631.5" />
              <mxPoint x="-860.5" y="-678.5" />
            </Array>
          </mxGeometry>
        </mxCell>
        <mxCell id="HsduzMEsnFrv9ZGrpt-6-22" value="" style="curved=1;endArrow=classic;html=1;rounded=0;fontSize=12;startSize=8;endSize=8;" edge="1" parent="1">
          <mxGeometry width="50" height="50" relative="1" as="geometry">
            <mxPoint x="-1070" y="-631.5" as="sourcePoint" />
            <mxPoint x="-1062" y="-674.5" as="targetPoint" />
            <Array as="points">
              <mxPoint x="-1092" y="-631.5" />
              <mxPoint x="-1097" y="-678.5" />
            </Array>
          </mxGeometry>
        </mxCell>
        <mxCell id="HsduzMEsnFrv9ZGrpt-6-24" value="" style="rounded=1;whiteSpace=wrap;html=1;" vertex="1" parent="1">
          <mxGeometry x="-1204" y="-596" width="31" height="163" as="geometry" />
        </mxCell>
        <mxCell id="HsduzMEsnFrv9ZGrpt-6-25" value="" style="rounded=1;whiteSpace=wrap;html=1;" vertex="1" parent="1">
          <mxGeometry x="-1091.5" y="-596" width="31" height="163" as="geometry" />
        </mxCell>
        <mxCell id="HsduzMEsnFrv9ZGrpt-6-26" value="" style="rounded=1;whiteSpace=wrap;html=1;" vertex="1" parent="1">
          <mxGeometry x="-858.5" y="-596" width="31" height="163" as="geometry" />
        </mxCell>
        <mxCell id="HsduzMEsnFrv9ZGrpt-6-28" value="" style="rounded=1;whiteSpace=wrap;html=1;" vertex="1" parent="1">
          <mxGeometry x="-1223" y="-1011" width="234.5" height="59" as="geometry" />
        </mxCell>
        <mxCell id="HsduzMEsnFrv9ZGrpt-6-29" value="" style="rounded=1;whiteSpace=wrap;html=1;" vertex="1" parent="1">
          <mxGeometry x="-617" y="-902" width="46" height="291" as="geometry" />
        </mxCell>
        <mxCell id="HsduzMEsnFrv9ZGrpt-6-30" value="task_list" style="text;html=1;align=center;verticalAlign=middle;whiteSpace=wrap;rounded=0;fontSize=16;opacity=75;fillColor=default;fontStyle=1" vertex="1" parent="1">
          <mxGeometry x="-1221" y="-533" width="60" height="30" as="geometry" />
        </mxCell>
        <mxCell id="HsduzMEsnFrv9ZGrpt-6-31" value="task_list" style="text;html=1;align=center;verticalAlign=middle;whiteSpace=wrap;rounded=0;fontSize=16;opacity=75;fillColor=default;fontStyle=1" vertex="1" parent="1">
          <mxGeometry x="-1104.5" y="-533" width="60" height="30" as="geometry" />
        </mxCell>
        <mxCell id="HsduzMEsnFrv9ZGrpt-6-32" value="task_list" style="text;html=1;align=center;verticalAlign=middle;whiteSpace=wrap;rounded=0;fontSize=16;opacity=75;fillColor=default;fontStyle=1" vertex="1" parent="1">
          <mxGeometry x="-873" y="-533" width="60" height="30" as="geometry" />
        </mxCell>
        <mxCell id="HsduzMEsnFrv9ZGrpt-6-33" value="pending_list" style="text;html=1;align=center;verticalAlign=middle;whiteSpace=wrap;rounded=0;fontSize=16;opacity=75;fillColor=default;fontStyle=1" vertex="1" parent="1">
          <mxGeometry x="-1132.5" y="-996.5" width="60" height="30" as="geometry" />
        </mxCell>
        <mxCell id="HsduzMEsnFrv9ZGrpt-6-35" value="waiting_list" style="text;html=1;align=center;verticalAlign=middle;whiteSpace=wrap;rounded=0;fontSize=16;opacity=75;fillColor=default;fontStyle=1" vertex="1" parent="1">
          <mxGeometry x="-628" y="-778" width="60" height="30" as="geometry" />
        </mxCell>
        <mxCell id="HsduzMEsnFrv9ZGrpt-6-41" value="" style="curved=1;endArrow=classic;html=1;rounded=0;fontSize=12;startSize=8;endSize=8;" edge="1" parent="1">
          <mxGeometry width="50" height="50" relative="1" as="geometry">
            <mxPoint x="-1226" y="-443" as="sourcePoint" />
            <mxPoint x="-620" y="-593" as="targetPoint" />
            <Array as="points">
              <mxPoint x="-1176" y="-443" />
              <mxPoint x="-797" y="-459" />
            </Array>
          </mxGeometry>
        </mxCell>
        <mxCell id="HsduzMEsnFrv9ZGrpt-6-42" value="OS_wait()" style="text;html=1;align=center;verticalAlign=middle;whiteSpace=wrap;rounded=0;fontSize=16;opacity=75;fillColor=default;fontStyle=2" vertex="1" parent="1">
          <mxGeometry x="-769" y="-539" width="93" height="30" as="geometry" />
        </mxCell>
        <mxCell id="HsduzMEsnFrv9ZGrpt-6-44" value="" style="curved=1;endArrow=classic;html=1;rounded=0;fontSize=12;startSize=8;endSize=8;" edge="1" parent="1">
          <mxGeometry width="50" height="50" relative="1" as="geometry">
            <mxPoint x="-636" y="-904" as="sourcePoint" />
            <mxPoint x="-969" y="-994" as="targetPoint" />
            <Array as="points">
              <mxPoint x="-768" y="-911" />
              <mxPoint x="-786" y="-999" />
            </Array>
          </mxGeometry>
        </mxCell>
        <mxCell id="HsduzMEsnFrv9ZGrpt-6-45" value="OS_notifyAll()" style="text;html=1;align=center;verticalAlign=middle;whiteSpace=wrap;rounded=0;fontSize=16;opacity=75;fillColor=default;fontStyle=2" vertex="1" parent="1">
          <mxGeometry x="-827.5" y="-975" width="105" height="30" as="geometry" />
        </mxCell>
        <mxCell id="HsduzMEsnFrv9ZGrpt-6-46" value="" style="endArrow=classic;html=1;rounded=0;fontSize=12;startSize=8;endSize=8;curved=1;" edge="1" parent="1">
          <mxGeometry width="50" height="50" relative="1" as="geometry">
            <mxPoint x="-1105" y="-946" as="sourcePoint" />
            <mxPoint x="-1156" y="-859" as="targetPoint" />
          </mxGeometry>
        </mxCell>
        <mxCell id="HsduzMEsnFrv9ZGrpt-6-47" value="" style="endArrow=classic;html=1;rounded=0;fontSize=12;startSize=8;endSize=8;curved=1;" edge="1" parent="1">
          <mxGeometry width="50" height="50" relative="1" as="geometry">
            <mxPoint x="-1104" y="-945" as="sourcePoint" />
            <mxPoint x="-1068" y="-858" as="targetPoint" />
          </mxGeometry>
        </mxCell>
        <mxCell id="HsduzMEsnFrv9ZGrpt-6-48" value="" style="endArrow=classic;html=1;rounded=0;fontSize=12;startSize=8;endSize=8;curved=1;" edge="1" parent="1">
          <mxGeometry width="50" height="50" relative="1" as="geometry">
            <mxPoint x="-1104" y="-945" as="sourcePoint" />
            <mxPoint x="-906" y="-854" as="targetPoint" />
          </mxGeometry>
        </mxCell>
        <mxCell id="HsduzMEsnFrv9ZGrpt-6-49" value="sortPending()" style="text;html=1;align=center;verticalAlign=middle;whiteSpace=wrap;rounded=0;fontSize=16;opacity=75;fillColor=default;fontStyle=2" vertex="1" parent="1">
          <mxGeometry x="-1151" y="-930" width="133.5" height="30" as="geometry" />
        </mxCell>
        <mxCell id="HsduzMEsnFrv9ZGrpt-6-51" value="priorityArray" style="text;html=1;align=center;verticalAlign=middle;whiteSpace=wrap;rounded=0;fontSize=16;opacity=75;fillColor=default;fontStyle=1" vertex="1" parent="1">
          <mxGeometry x="-1185" y="-828" width="155" height="30" as="geometry" />
        </mxCell>
        <mxCell id="HsduzMEsnFrv9ZGrpt-6-52" value="round robins" style="text;html=1;align=center;verticalAlign=middle;whiteSpace=wrap;rounded=0;fontSize=16;opacity=75;fillColor=default;fontStyle=1" vertex="1" parent="1">
          <mxGeometry x="-1366" y="-672" width="120" height="30" as="geometry" />
        </mxCell>
        <mxCell id="HsduzMEsnFrv9ZGrpt-6-53" value="" style="triangle;whiteSpace=wrap;html=1;rotation=-90;" vertex="1" parent="1">
          <mxGeometry x="-534" y="-823" width="255" height="115" as="geometry" />
        </mxCell>
        <mxCell id="HsduzMEsnFrv9ZGrpt-6-54" value="sleep_heap" style="text;html=1;align=center;verticalAlign=middle;whiteSpace=wrap;rounded=0;fontSize=16;opacity=75;fillColor=default;fontStyle=1" vertex="1" parent="1">
          <mxGeometry x="-447" y="-778" width="87" height="30" as="geometry" />
        </mxCell>
        <mxCell id="HsduzMEsnFrv9ZGrpt-6-55" value="" style="curved=1;endArrow=classic;html=1;rounded=0;fontSize=12;startSize=8;endSize=8;" edge="1" parent="1">
          <mxGeometry width="50" height="50" relative="1" as="geometry">
            <mxPoint x="-1227" y="-435" as="sourcePoint" />
            <mxPoint x="-414" y="-617" as="targetPoint" />
            <Array as="points">
              <mxPoint x="-941" y="-435" />
              <mxPoint x="-537" y="-482" />
            </Array>
          </mxGeometry>
        </mxCell>
        <mxCell id="HsduzMEsnFrv9ZGrpt-6-56" value="OS_sleep()" style="text;html=1;align=center;verticalAlign=middle;whiteSpace=wrap;rounded=0;fontSize=16;opacity=75;fillColor=default;fontStyle=2" vertex="1" parent="1">
          <mxGeometry x="-658" y="-500" width="93" height="30" as="geometry" />
        </mxCell>
        <mxCell id="HsduzMEsnFrv9ZGrpt-6-58" value="" style="curved=1;endArrow=classic;html=1;rounded=0;fontSize=12;startSize=8;endSize=8;" edge="1" parent="1">
          <mxGeometry width="50" height="50" relative="1" as="geometry">
            <mxPoint x="-419" y="-907" as="sourcePoint" />
            <mxPoint x="-1100" y="-1027" as="targetPoint" />
            <Array as="points">
              <mxPoint x="-737" y="-1036" />
              <mxPoint x="-1072" y="-1090" />
            </Array>
          </mxGeometry>
        </mxCell>
        <mxCell id="HsduzMEsnFrv9ZGrpt-6-57" value="OS_wake()" style="text;html=1;align=center;verticalAlign=middle;whiteSpace=wrap;rounded=0;fontSize=16;opacity=75;fillColor=default;fontStyle=2" vertex="1" parent="1">
          <mxGeometry x="-537" y="-956" width="93" height="30" as="geometry" />
        </mxCell>
      </root>
    </mxGraphModel>
  </diagram>
</mxfile>
